<svg xmlns="http://www.w3.org/2000/svg" width="62" height="44" viewBox="0 0 62 44">
    <g fill="#FFF" fill-rule="evenodd">
        <path d="M.195 33.668a90.277 90.277 0 0 1 .21-3.691c.083-1.09.195-2.347.335-3.77.14-1.425.325-2.93.554-4.519.228-1.587.498-3.216.809-4.886.31-1.67.68-3.296 1.107-4.878A42.592 42.592 0 0 1 4.678 7.45c.55-1.4 1.169-2.625 1.854-3.674.686-1.048 1.45-1.878 2.294-2.487.844-.61 1.77-.914 2.778-.914.398 0 .817.07 1.256.21.44.142.841.37 1.204.686.364.317.665.736.906 1.257.24.522.36 1.163.36 1.925 0 .692-.108 1.485-.325 2.382a23.265 23.265 0 0 1-.914 2.874 41.799 41.799 0 0 1-1.389 3.182 51.159 51.159 0 0 1-1.749 3.296 65.675 65.675 0 0 1-1.995 3.234 43.781 43.781 0 0 1-2.136 2.98l-.035.28c.234-.117.41-.193.527-.228.118-.035.24-.053.37-.053.152 0 .275.015.369.044.093.03.178.062.255.097.076.035.155.067.237.097.082.029.182.044.299.044 1.16 0 2.185-.138 3.076-.413.89-.276 1.64-.583 2.25-.923a8.278 8.278 0 0 0 1.863-1.354l-.387 4.272a11.45 11.45 0 0 1-2.425.984c-.844.234-1.623.41-2.338.527a22.46 22.46 0 0 1-2.479.246c.422.774.803 1.577 1.143 2.409.293.715.56 1.514.8 2.4.24.884.36 1.777.36 2.68 0 .105-.015.328-.044.668a23.748 23.748 0 0 1-.448 2.883 16.747 16.747 0 0 1-.501 1.81 12.67 12.67 0 0 1-.747 1.767 7.221 7.221 0 0 1-1.029 1.511c-.392.44-.843.794-1.353 1.064s-1.087.404-1.731.404c-.645 0-1.208-.146-1.688-.44a4.016 4.016 0 0 1-1.23-1.186 7.293 7.293 0 0 1-.853-1.74 13.599 13.599 0 0 1-.536-2.1 21.819 21.819 0 0 1-.273-2.26 32.467 32.467 0 0 1-.079-2.223zM4.89 25.23c-.047 0-.1.132-.159.396-.058.264-.114.603-.167 1.02a40 40 0 0 0-.149 1.397 75.58 75.58 0 0 0-.21 2.91c-.024.427-.036.764-.036 1.01 0 1.723.032 3.094.097 4.113.064 1.02.146 1.793.246 2.32.1.528.21.87.334 1.029.123.158.249.237.378.237.398 0 .717-.182.958-.545.24-.363.422-.823.545-1.38.123-.556.205-1.166.246-1.828.04-.662.061-1.298.061-1.907 0-.41-.032-.914-.096-1.512a30.49 30.49 0 0 0-.264-1.872c-.111-.65-.24-1.298-.387-1.942a23.32 23.32 0 0 0-.457-1.732 7.725 7.725 0 0 0-.483-1.239c-.164-.316-.317-.475-.457-.475zM9.16 6.053c-.68 1.687-1.213 3.173-1.6 4.456a37.565 37.565 0 0 0-.878 3.419c-.2.996-.34 1.872-.422 2.628-.082.756-.164 1.456-.246 2.1a229.051 229.051 0 0 1 2.162-3.981c.726-1.307 1.383-2.52 1.969-3.639a44.663 44.663 0 0 0 1.432-2.962c.37-.855.554-1.506.554-1.951 0-.621-.088-1.075-.264-1.362-.176-.287-.416-.43-.72-.43-.54 0-.95.143-1.231.43-.281.287-.533.718-.756 1.292z"/>
        <path d="M32.512 27.533c-.27.375-.63.815-1.081 1.319-.452.503-.958.984-1.52 1.441a9.506 9.506 0 0 1-1.811 1.16c-.645.317-1.29.475-1.934.475-.773 0-1.418-.25-1.934-.747-.515-.498-.96-1.222-1.336-2.171a8.535 8.535 0 0 1-1.037 1.002 9.23 9.23 0 0 1-1.344.923 8.595 8.595 0 0 1-1.52.676 4.977 4.977 0 0 1-1.583.264c-.562 0-1.11-.114-1.643-.343a4.28 4.28 0 0 1-1.415-.984 4.811 4.811 0 0 1-.985-1.565c-.246-.615-.369-1.31-.369-2.083 0-.879.123-1.78.37-2.707.245-.925.585-1.83 1.019-2.715.433-.885.946-1.72 1.538-2.505.592-.786 1.239-1.471 1.942-2.057a9.468 9.468 0 0 1 2.224-1.397A5.82 5.82 0 0 1 22.475 15c.27 0 .48.053.632.158.153.106.279.226.378.36.1.135.197.267.29.396.094.129.211.223.352.281.14.059.284.097.43.115.147.017.297.026.449.026.129 0 .26-.003.395-.009.135-.006.267-.009.396-.009.176 0 .34.018.492.053a.827.827 0 0 1 .404.229c.118.117.208.28.273.492.064.21.096.498.096.861 0 .563-.058 1.187-.175 1.872a91.708 91.708 0 0 1-.387 2.11c-.14.72-.27 1.441-.387 2.162-.117.72-.175 1.403-.175 2.048 0 .55.05.981.149 1.292.1.31.313.465.642.465.246 0 .503-.061.773-.184a4.81 4.81 0 0 0 .817-.484c.276-.199.551-.424.827-.676.275-.252.536-.513.782-.783a26.95 26.95 0 0 0 1.74-2.144l.844 3.902zM17.5 26.145c0 .293.02.577.062.852.04.275.114.522.22.738.105.217.245.393.421.528.176.134.399.202.668.202.434 0 .826-.188 1.178-.563a5.48 5.48 0 0 0 .914-1.353 9.685 9.685 0 0 0 .624-1.635c.158-.562.26-1.031.308-1.406l1.072-5.168c-.48 0-.95.12-1.406.36-.457.24-.888.566-1.292.976a8.73 8.73 0 0 0-1.117 1.406 10.969 10.969 0 0 0-1.45 3.41 7.388 7.388 0 0 0-.202 1.653z"/>
        <path d="M37.557 31.875c-1.078 0-2.025-.2-2.84-.598a6.076 6.076 0 0 1-2.047-1.6 6.921 6.921 0 0 1-1.248-2.32A8.942 8.942 0 0 1 31 24.615c0-.68.07-1.388.21-2.127.142-.738.35-1.462.625-2.17.275-.71.615-1.386 1.02-2.03a8.12 8.12 0 0 1 1.406-1.697 6.493 6.493 0 0 1 1.784-1.16A5.336 5.336 0 0 1 38.207 15c.668 0 1.286.103 1.855.308.568.205 1.054.489 1.459.852.404.363.72.794.949 1.292a3.81 3.81 0 0 1 .343 1.609c0 .398-.053.79-.159 1.177-.105.387-.26.736-.466 1.046-.205.31-.454.56-.747.747a1.787 1.787 0 0 1-.984.282c-.55 0-.911-.147-1.081-.44-.17-.293-.255-.697-.255-1.213 0-.21.009-.433.026-.668a8.54 8.54 0 0 0 .027-.633c0-.28-.03-.515-.088-.703-.059-.187-.188-.281-.387-.281-.48 0-.89.114-1.23.343-.34.228-.63.527-.87.896-.24.37-.431.785-.572 1.248a12.1 12.1 0 0 0-.334 1.38c-.082.457-.134.894-.158 1.31a19.14 19.14 0 0 0-.035 1.046c0 .422.038.861.114 1.318.076.457.22.876.43 1.257.212.38.499.697.862.95.364.251.832.377 1.407.377.562 0 1.183-.173 1.863-.519.68-.345 1.362-.782 2.048-1.31a18.844 18.844 0 0 0 1.96-1.74 22.765 22.765 0 0 0 1.6-1.792l1.212 2.039a22.987 22.987 0 0 1-2.848 3.357 17.33 17.33 0 0 1-1.415 1.23c-.51.4-1.043.754-1.6 1.064a9.535 9.535 0 0 1-1.74.756 5.986 5.986 0 0 1-1.836.29z"/>
        <path d="M51.191 32c-1.101 0-2.065-.2-2.891-.598a5.982 5.982 0 0 1-2.066-1.608 6.884 6.884 0 0 1-1.239-2.338 9.32 9.32 0 0 1-.413-2.786c0-.656.064-1.35.193-2.083.13-.733.326-1.45.59-2.153.263-.704.594-1.374.992-2.013a8 8 0 0 1 1.398-1.688 6.451 6.451 0 0 1 1.793-1.16c.662-.287 1.397-.43 2.206-.43.656 0 1.266.105 1.828.316.563.21 1.052.507 1.468.888.416.38.741.84.975 1.38.235.539.352 1.142.352 1.81 0 .727-.179 1.453-.536 2.18a7.953 7.953 0 0 1-1.486 2.056 10.486 10.486 0 0 1-2.258 1.723c-.873.504-1.82.897-2.84 1.178.177.316.35.58.52.79.17.212.342.376.518.493.176.117.36.2.554.246.193.047.401.07.624.07.703 0 1.444-.14 2.223-.421.78-.282 1.538-.633 2.277-1.055a19.266 19.266 0 0 0 2.091-1.38c.657-.498 1.213-.97 1.67-1.415l2.268 2.355a23.224 23.224 0 0 1-3.287 2.83c-.504.352-1.046.698-1.626 1.038-.58.34-1.19.641-1.828.905-.639.264-1.301.474-1.987.633a9.234 9.234 0 0 1-2.083.237zm-2.337-8.262c.421 0 .881-.108 1.38-.325.497-.217.96-.495 1.388-.835.428-.34.788-.709 1.081-1.107.293-.399.44-.785.44-1.16 0-.528-.097-.961-.29-1.301-.194-.34-.431-.51-.712-.51-.504 0-.935.094-1.292.281-.358.188-.657.43-.897.73a3.78 3.78 0 0 0-.58 1.02 6.94 6.94 0 0 0-.334 1.15 8.734 8.734 0 0 0-.15 1.126c-.023.363-.034.673-.034.931z"/>
    </g>
</svg>
