<svg xmlns="http://www.w3.org/2000/svg" width="385" height="767" viewBox="0 0 385 767">
    <g fill="none" fill-rule="evenodd" stroke="#FFF" transform="translate(1 -15)">
        <path stroke-linecap="square" d="M214.459 297c22.257 0 47.694 20.462 57.233 26.758 9.539 6.295 7.949 7.87 14.308 14.165-7.949 9.444-37.36 6.296-44.515 7.87-7.154 1.574-25.436 6.296-39.745 3.148-14.308-3.148-31.796-14.166-41.335-22.036-9.538-7.87 31.797-29.905 54.054-29.905z"/>
        <path stroke-linecap="square" d="M204.486 301.07c-4.743 3.184-9.486 9.551-9.486 17.51 0 7.958 7.905 20.692 20.553 22.284 12.648 1.591 25.296-11.142 26.877-17.51 1.58-6.366 0-17.508-6.324-19.1-6.324-1.591-26.877-6.367-31.62-3.183z"/>
        <circle cx="220" cy="318" r="5" stroke-linecap="square"/>
        <path stroke-linecap="round" d="M138 311c1.632 2.857 5.87 7.643 11 10.5 2.167 1.207 5.834 2.373 11 3.5M151 304c1.336 2.04 4.803 5.46 9 7.5 1.773.862 4.773 1.695 9 2.5M161 297c1.336 2.04 4.803 5.46 9 7.5 1.773.862 4.773 1.695 9 2.5M174 291c1.336 2.04 4.803 5.46 9 7.5 1.773.862 4.773 1.695 9 2.5M189 289c1.187 2.04 4.27 5.46 8 7.5 1.576.862 4.243 1.695 8 2.5M205 289c1.187 2.04 4.27 5.46 8 7.5 1.576.862 4.243 1.695 8 2.5"/>
        <path stroke-linecap="square" d="M125.787 247.133c20.67-4.824 39.75-8.04 50.88-4.824 11.131 3.216 25.441 16.08 38.161 19.296 12.72 3.216 50.88 14.472 63.601 16.08 12.72 1.608 23.85-3.216 15.9-8.04-7.95-4.824-12.72-6.432-44.52-19.296-21.2-8.576-34.8-13.936-40.8-16.08-14.14-6.431-29.691-9.111-46.651-8.04-25.44 1.609-49.29 16.08-52.47 17.688-3.18 1.608-4.77 8.04 15.9 3.216zM288 279c6.521 6.357 30.975 19.071 34.235 52.446 3.26 33.375 6.521 93.768 0 101.715-6.52 7.946-13.975 16.16-17.235 19.339"/>
        <path stroke-linecap="square" d="M305 452.5c-15.604 12.639-23.936 20.563-24.998 23.77-1.592 4.813-7.963 24.063 4.778 33.688C297.52 519.583 316.63 526 323 526"/>
        <path stroke-linecap="square" d="M301 504.08c9.6-1.56 24 20.285 43.2 21.845 19.2 1.56 28.8-21.845 41.6-21.845s16 3.12 19.2 4.68M227.937 585.238c9.52 0 33.32 14.45 41.254 16.055 7.933 1.605 92.027 14.449 133.28 9.633 41.253-4.817 66.64-24.082 74.574-25.688 7.933-1.605-34.907 12.844-77.747 0-42.84-12.843-44.427-8.027-50.774-6.422-6.347 1.606-20.627-4.816-28.56-4.816s-30.147 16.055-58.707 14.45c-28.56-1.606-42.84-3.212-33.32-3.212z"/>
        <path stroke-linecap="square" d="M243 593c6.338 11.091 26.937 53.87 60.211 61.793 33.275 7.922 77.641 14.26 99.824-1.584C425.218 637.364 463.246 604.09 468 593M91.801 344c-3.178 41.234-4.767 74.54-3.178 91.984 1.59 17.446 15.889 71.368 23.833 79.297 7.945 7.93 33.366 20.617 36.544 31.719"/>
        <path stroke-linecap="square" d="M113 520.737c11.659 56.268 19.608 87.587 23.847 93.957 6.36 9.555 71.542 124.214 143.084 154.471 71.542 30.258 184.42-1.592 235.294-49.367 50.874-47.774 101.748-125.806 101.748-136.954 0-11.147 17.488-89.18 20.668-97.142 3.18-7.962 4.77-15.925 6.359-20.702"/>
        <path stroke-linecap="square" d="M396 8c-20.675 17.516-127.229 52.547-176.53 35.032-49.301-17.516-55.663 52.547-66.795 58.916-11.133 6.37-36.579 4.777-42.94 25.478-6.362 20.7-27.036 125.795-25.446 167.196 1.59 41.4-6.361 92.355-11.132 108.279-4.771 15.923-4.771 146.495 25.445 167.196 30.217 20.7 19.085 108.28 6.362 121.018C92.24 703.854 12.723 699.077 0 715M252.83 596.101c-1.585 3.188-3.17 11.156 0 9.562 3.169-1.593 4.754-14.447 4.754-9.562 0 4.886-1.585 6.375 0 14.343 1.056 5.313 3.169 3.13 6.338-6.55 4.226-1.18 6.339-1.18 6.339 0 0 1.77-9.508 12.925-6.339 14.519 3.17 1.593 11.092-17.403 11.092-14.519 0 2.884-11.092 22.487-7.923 20.893 3.17-1.593 11.093-29.037 14.262-20.893 3.17 8.144-9.508 20.893-7.923 24.08 1.584 3.188 9.508-27.092 14.261-22.31 4.754 4.78-11.092 20.717-9.507 28.685 1.584 7.968 14.261-38.599 17.43-30.455 3.17 8.144-17.43 33.642-12.676 35.236 4.753 1.594 20.6-38.248 20.6-31.873 0 6.375-14.262 31.873-11.093 35.06 3.17 3.188 14.262-35.06 17.431-33.466 3.17 1.593-17.43 38.247-12.677 39.841 4.754 1.594 15.846-46.216 20.6-39.841 4.754 6.374-17.43 44.622-12.677 43.028 4.754-1.593 20.6-50.997 22.185-43.028 1.585 7.968-19.015 49.403-14.262 47.81 4.754-1.594 19.016-49.404 20.6-46.217 1.585 3.188-11.092 46.216-7.923 46.216 3.17 0 12.677-60.559 14.262-46.216 1.585 14.343-9.508 46.216-4.754 47.81 4.754 1.594 9.508-52.59 11.093-47.81 1.584 4.781-3.17 52.59-1.585 49.404 1.585-3.188 7.923-47.81 9.508-46.216 1.056 1.062 0 15.936-3.17 44.622 4.226-31.873 7.395-46.747 9.508-44.622 3.17 3.187-6.338 47.81-3.17 46.216 3.17-1.594 7.924-50.997 11.093-46.216 2.113 3.187 1.057 18.592-3.169 46.216 6.338-33.998 10.036-49.404 11.092-46.216 1.585 4.78-6.338 43.028-4.754 44.622 1.585 1.594 7.924-55.778 12.677-44.622 3.17 7.437 2.113 21.78-3.169 43.028 5.282-33.998 8.98-48.872 11.093-44.622 3.169 6.375-6.339 39.841-3.17 39.841 3.17 0 9.508-43.028 11.093-38.247 1.584 4.78-6.339 38.247-1.585 36.654 4.754-1.594 4.754-39.842 7.923-38.248 3.17 1.594 1.585 33.467 3.17 31.873 1.584-1.594 3.169-36.654 4.753-35.06 1.585 1.593 0 33.466 3.17 31.873 3.169-1.594 3.169-31.873 4.753-31.873 1.585 0 1.585 29.16 4.754 23.904 3.17-5.255 1.585-27.092 3.17-25.498 1.584 1.594 6.338 17.53 6.338 14.343 0-3.187 1.585-17.706 3.17-17.706 1.584 0 1.584 9.738 3.169 11.331 1.584 1.594 4.753-7.792 4.753-9.562 0-1.769 3.17-12.749 4.754-7.968 1.585 4.781-3.169 9.562-1.584 9.562 1.584 0 6.338-9.562 9.507-11.156 2.113-1.062 2.113 0 0 3.188"/>
        <path stroke-linecap="square" d="M261.83 599.101c-1.585 3.188-3.17 11.156 0 9.562 3.169-1.593 4.754-14.447 4.754-9.562 0 4.886-1.585 6.375 0 14.343 1.056 5.313 3.169 3.13 6.338-6.55 4.226-1.18 6.339-1.18 6.339 0 0 1.77-9.508 12.925-6.339 14.519 3.17 1.593 11.092-17.403 11.092-14.519 0 2.884-11.092 22.487-7.923 20.893 3.17-1.593 11.093-29.037 14.262-20.893 3.17 8.144-9.508 20.893-7.923 24.08 1.584 3.188 9.508-27.092 14.261-22.31 4.754 4.78-11.092 20.717-9.507 28.685 1.584 7.968 14.261-38.599 17.43-30.455 3.17 8.144-17.43 33.642-12.676 35.236 4.753 1.594 20.6-38.248 20.6-31.873 0 6.375-14.262 31.873-11.093 35.06 3.17 3.188 14.262-35.06 17.431-33.466 3.17 1.593-17.43 38.247-12.677 39.841 4.754 1.594 15.846-46.216 20.6-39.841 4.754 6.374-17.43 44.622-12.677 43.028 4.754-1.593 20.6-50.997 22.185-43.028 1.585 7.968-19.015 49.403-14.262 47.81 4.754-1.594 19.016-49.404 20.6-46.217 1.585 3.188-11.092 46.216-7.923 46.216 3.17 0 12.677-60.559 14.262-46.216 1.585 14.343-9.508 46.216-4.754 47.81 4.754 1.594 9.508-52.59 11.093-47.81 1.584 4.781-3.17 52.59-1.585 49.404 1.585-3.188 7.923-47.81 9.508-46.216 1.056 1.062 0 15.936-3.17 44.622 4.226-31.873 7.395-46.747 9.508-44.622 3.17 3.187-6.338 47.81-3.17 46.216 3.17-1.594 7.924-50.997 11.093-46.216 2.113 3.187 1.057 18.592-3.169 46.216 6.338-33.998 10.036-49.404 11.092-46.216 1.585 4.78-6.338 43.028-4.754 44.622 1.585 1.594 7.924-55.778 12.677-44.622 3.17 7.437 2.113 21.78-3.169 43.028 5.282-33.998 8.98-48.872 11.093-44.622 3.169 6.375-6.339 39.841-3.17 39.841 3.17 0 9.508-43.028 11.093-38.247 1.584 4.78-6.339 38.247-1.585 36.654 4.754-1.594 4.754-39.842 7.923-38.248 3.17 1.594 1.585 33.467 3.17 31.873 1.584-1.594 3.169-36.654 4.753-35.06 1.585 1.593 0 33.466 3.17 31.873 3.169-1.594 3.169-31.873 4.753-31.873 1.585 0 1.585 29.16 4.754 23.904 3.17-5.255 1.585-27.092 3.17-25.498 1.584 1.594 6.338 17.53 6.338 14.343 0-3.187 1.585-17.706 3.17-17.706 1.584 0 1.584 9.738 3.169 11.331 1.584 1.594 4.753-7.792 4.753-9.562 0-1.769 3.17-12.749 4.754-7.968 1.585 4.781-3.169 9.562-1.584 9.562 1.584 0 6.338-9.562 9.507-11.156 2.113-1.062 2.113 0 0 3.188"/>
        <path stroke-linecap="square" d="M253 587.275c0 1.577 1.592 7.096 3.184 4.731 1.592-2.366 1.592-4.731 3.184-2.366 1.592 2.366 4.776 11.828 6.368 7.097 1.592-4.731 3.184-12.616 4.776-7.097 1.061 3.68 2.123 6.046 3.184 7.097l3.184-7.097c0 5.783.53 8.148 1.592 7.097 1.592-1.577 1.592-12.616 4.776-11.039 3.184 1.577 0 11.039 3.184 11.039s3.184-12.616 4.776-11.039c1.592 1.577 0 11.039 3.184 11.039s3.184-12.616 4.776-12.616c1.592 0 0 15.77 3.184 15.77s0-22.078 3.184-20.501c3.184 1.577 3.184 25.232 4.776 18.924 1.592-6.308 3.184-28.386 4.776-23.655 1.592 4.731 0 25.232 1.592 25.232s4.776-29.963 6.368-25.232c1.592 4.731-3.184 28.386 0 28.386s6.368-26.809 7.96-25.232c1.592 1.577-3.184 28.386 0 26.809 3.184-1.577 4.776-28.386 7.96-25.232s0 18.924 1.592 22.078 7.96-26.809 7.96-22.078v20.5c0 3.155 4.776-23.654 6.368-22.077 1.592 1.577-3.184 25.232 0 25.232s7.96-31.54 9.552-25.232c1.592 6.308-3.184 28.386 1.592 26.809 4.776-1.577 3.184-26.809 6.368-23.655s-1.592 31.54 3.184 23.655c4.776-7.885 6.368-26.809 7.96-22.078 1.592 4.731-4.776 23.655 0 22.078 4.776-1.577 3.184-26.38 6.368-20.501 3.184 5.879-1.592 20.5 1.592 20.5s3.184-22.077 6.368-17.346c3.184 4.731-4.776 11.039 0 14.193s3.184-14.193 6.368-11.828c3.184 2.366 0 13.405 4.776 11.828s3.184-11.039 6.368-9.462 0 14.193 3.184 11.039 3.184-12.616 6.368-9.462-1.592 6.308 3.184 6.308 1.592-11.039 6.368-7.885 1.592 6.308 3.184 6.308 6.368-7.885 7.96-6.308c1.592 1.577 3.184-1.148 6.368-1.577"/>
        <path stroke-linecap="square" d="M243 590.275c0 1.577 1.592 7.096 3.184 4.731 1.592-2.366 1.592-4.731 3.184-2.366 1.592 2.366 4.776 11.828 6.368 7.097 1.592-4.731 3.184-12.616 4.776-7.097 1.061 3.68 2.123 6.046 3.184 7.097l3.184-7.097c0 5.783.53 8.148 1.592 7.097 1.592-1.577 1.592-12.616 4.776-11.039 3.184 1.577 0 11.039 3.184 11.039s3.184-12.616 4.776-11.039c1.592 1.577 0 11.039 3.184 11.039s3.184-12.616 4.776-12.616c1.592 0 0 15.77 3.184 15.77s0-22.078 3.184-20.501c3.184 1.577 3.184 25.232 4.776 18.924 1.592-6.308 3.184-28.386 4.776-23.655 1.592 4.731 0 25.232 1.592 25.232s4.776-29.963 6.368-25.232c1.592 4.731-3.184 28.386 0 28.386s6.368-26.809 7.96-25.232c1.592 1.577-3.184 28.386 0 26.809 3.184-1.577 4.776-28.386 7.96-25.232s0 18.924 1.592 22.078 7.96-26.809 7.96-22.078v20.5c0 3.155 4.776-23.654 6.368-22.077 1.592 1.577-3.184 25.232 0 25.232s7.96-31.54 9.552-25.232c1.592 6.308-3.184 28.386 1.592 26.809 4.776-1.577 3.184-26.809 6.368-23.655s-1.592 31.54 3.184 23.655c4.776-7.885 6.368-26.809 7.96-22.078 1.592 4.731-4.776 23.655 0 22.078 4.776-1.577 3.184-26.38 6.368-20.501 3.184 5.879-1.592 20.5 1.592 20.5s3.184-22.077 6.368-17.346c3.184 4.731-4.776 11.039 0 14.193s3.184-14.193 6.368-11.828c3.184 2.366 0 13.405 4.776 11.828s3.184-11.039 6.368-9.462 0 14.193 3.184 11.039 3.184-12.616 6.368-9.462-1.592 6.308 3.184 6.308 1.592-11.039 6.368-7.885 1.592 6.308 3.184 6.308 6.368-7.885 7.96-6.308c1.592 1.577 3.184-1.148 6.368-1.577M299.863 505c-1.543 3.29-4.628 9.87-1.543 9.87s1.543-9.87 4.628-8.225c3.085 1.645 0 9.869 1.542 9.869 1.543 0 1.543-11.514 3.085-8.224 1.543 3.29 1.543 13.159 3.085 11.514 1.543-1.645 1.543-8.225 3.085-6.58 1.543 1.645 1.543 8.225 3.085 8.225 1.543 0 1.543-4.935 3.085-3.29 1.542 1.645 0 8.224 3.085 6.58"/>
        <path stroke-linecap="square" d="M303.863 506c-1.543 3.29-4.628 9.87-1.543 9.87s1.543-9.87 4.628-8.225c3.085 1.645 0 9.869 1.542 9.869 1.543 0 1.543-11.514 3.085-8.224 1.543 3.29 1.543 13.159 3.085 11.514 1.543-1.645 1.543-8.225 3.085-6.58 1.543 1.645 1.543 8.225 3.085 8.225 1.543 0 1.543-4.935 3.085-3.29 1.542 1.645 0 8.224 3.085 6.58M368 520.42c1.6-3.084 1.6-6.168 3.2-6.168s1.6 12.336 3.2 7.71 0-7.71 1.6-9.252c1.6-1.542 0 8.748 3.2 5.145 3.2-3.603 1.6-2.061 3.2-6.687s1.6 6.168 4.8 0c3.2-6.168 3.2-4.626 6.4-3.084 3.2 1.542 6.4 4.626 6.4 1.542 0-2.056-.533-3.598-1.6-4.626l-1.6 1.542"/>
        <path stroke-linecap="square" d="M363 523.42c1.6-3.084 1.6-6.168 3.2-6.168s1.6 12.336 3.2 7.71 0-7.71 1.6-9.252c1.6-1.542 0 8.748 3.2 5.145 3.2-3.603 1.6-2.061 3.2-6.687s1.6 6.168 4.8 0c3.2-6.168 3.2-4.626 6.4-3.084 3.2 1.542 6.4 4.626 6.4 1.542 0-2.056-.533-3.598-1.6-4.626l-1.6 1.542M217 318c.667 0 1.333-1 2-3v6M215 337.249c1.02-1.062 2.549-4.776 4.588-11.145 1.02 9.553 1.53 13.798 1.53 12.737 0-1.592 1.53-9.552 3.058-11.144 1.53-1.593 4.589 11.144 4.589 9.552 0-1.062.51-5.307 1.53-12.737l6.117 4.777-6.118-14.329 7.647 4.776L227.235 307 241 313.368M117 244.19c6.385-3.162 6.385.79 11.174 0 4.79-.79 7.982-6.323 9.578-7.904 1.597-1.581-4.789-.458 3.193 1.58 7.982 2.039 6.385-3.161 9.578-4.742 3.193-1.581 0 4.057 7.982 4.743 7.981.685-1.597-7.905 9.578-7.905 11.174 0 6.385 4.743 9.578 7.905 3.192 3.161 7.981-18.972 11.174-9.486 3.193 9.486-1.596 12.647 1.596 15.81 3.193 3.161 0-9.314 6.386-9.042 6.385.271 3.192 10.622 6.385 13.784 3.192 3.162 6.385-11.066 7.981-11.066 1.597 0-3.192 18.97 1.597 17.39 4.789-1.581-1.597-16.516 3.192-14.582 4.79 1.934 1.597 16.163 4.79 16.163 3.192 0 4.788-19.678 6.385-16.163 1.596 3.515 0 19.325 3.192 20.906 3.193 1.58 3.193-15.81 6.386-14.229 3.192 1.581 3.192 20.552 6.385 20.552 3.193 0-1.596-15.81 4.79-14.228 6.384 1.58 3.192 12.647 6.384 14.228 3.193 1.581 1.597-14.228 4.79-12.647 3.192 1.58 3.192 14.228 4.788 14.228 1.597 0 3.193-14.228 6.386-9.485 3.192 4.742-1.597 11.066 1.596 12.647 3.193 1.581 6.385-11.066 9.578-9.486 3.193 1.581 1.596 6.324 3.193 9.486 1.596 3.162 3.192 0 6.385-1.58"/>
        <path stroke-linecap="square" d="M108 243.19c6.385-3.162 6.385.79 11.174 0 4.79-.79 7.982-6.323 9.578-7.904 1.597-1.581-4.789-.458 3.193 1.58 7.982 2.039 6.385-3.161 9.578-4.742 3.193-1.581 0 4.057 7.982 4.743 7.981.685-1.597-7.905 9.578-7.905 11.174 0 6.385 4.743 9.578 7.905 3.192 3.161 7.981-18.972 11.174-9.486 3.193 9.486-1.596 12.647 1.596 15.81 3.193 3.161 0-9.314 6.386-9.042 6.385.271 3.192 10.622 6.385 13.784 3.192 3.162 6.385-11.066 7.981-11.066 1.597 0-3.192 18.97 1.597 17.39 4.789-1.581-1.597-16.516 3.192-14.582 4.79 1.934 1.597 16.163 4.79 16.163 3.192 0 4.788-19.678 6.385-16.163 1.596 3.515 0 19.325 3.192 20.906 3.193 1.58 3.193-15.81 6.386-14.229 3.192 1.581 3.192 20.552 6.385 20.552 3.193 0-1.596-15.81 4.79-14.228 6.384 1.58 3.192 12.647 6.384 14.228 3.193 1.581 1.597-14.228 4.79-12.647 3.192 1.58 3.192 14.228 4.788 14.228 1.597 0 3.193-14.228 6.386-9.485 3.192 4.742-1.597 11.066 1.596 12.647 3.193 1.581 6.385-11.066 9.578-9.486 3.193 1.581 1.596 6.324 3.193 9.486 1.596 3.162 3.192 0 6.385-1.58"/>
    </g>
</svg>
